<?xml version="1.0" encoding="UTF-8" standalone="no"?>
<!-- Created with Inkscape (http://www.inkscape.org/) -->

<svg
   xmlns:dc="http://purl.org/dc/elements/1.1/"
   xmlns:cc="http://creativecommons.org/ns#"
   xmlns:rdf="http://www.w3.org/1999/02/22-rdf-syntax-ns#"
   xmlns:svg="http://www.w3.org/2000/svg"
   xmlns="http://www.w3.org/2000/svg"
   xmlns:sodipodi="http://sodipodi.sourceforge.net/DTD/sodipodi-0.dtd"
   xmlns:inkscape="http://www.inkscape.org/namespaces/inkscape"
   id="svg3004"
   version="1.1"
   inkscape:version="0.48.2 r9819"
   width="1280"
   height="960"
   xml:space="preserve"
   sodipodi:docname="LikelyVsConventional.pdf"><metadata
     id="metadata3010"><rdf:RDF><cc:Work
         rdf:about=""><dc:format>image/svg+xml</dc:format><dc:type
           rdf:resource="http://purl.org/dc/dcmitype/StillImage" /><dc:title></dc:title></cc:Work></rdf:RDF></metadata><defs
     id="defs3008"><clipPath
       clipPathUnits="userSpaceOnUse"
       id="clipPath3024"><path
         d="m 0,0 1024,0 0,768 L 0,768 0,0 z"
         id="path3026" /></clipPath><clipPath
       clipPathUnits="userSpaceOnUse"
       id="clipPath3082"><path
         d="m 433.9049,8.625014 119.272,0 0,48 -119.272,0 0,-48 z"
         id="path3084" /></clipPath><clipPath
       clipPathUnits="userSpaceOnUse"
       id="clipPath3096"><path
         d="m 768.5069,10.62502 243.876,0 0,44 -243.876,0 0,-44 z"
         id="path3098" /></clipPath><clipPath
       clipPathUnits="userSpaceOnUse"
       id="clipPath3106"><path
         d="m 766.5069,8.625014 247.876,0 0,48 -247.876,0 0,-48 z"
         id="path3108" /></clipPath><clipPath
       clipPathUnits="userSpaceOnUse"
       id="clipPath3120"><path
         d="m 547.7009,10.62502 219.488,0 0,44 -219.488,0 0,-44 z"
         id="path3122" /></clipPath><clipPath
       clipPathUnits="userSpaceOnUse"
       id="clipPath3130"><path
         d="m 545.7009,8.625014 223.488,0 0,48 -223.488,0 0,-48 z"
         id="path3132" /></clipPath><clipPath
       clipPathUnits="userSpaceOnUse"
       id="clipPath3144"><path
         d="m 0,0 1024,0 0,768 L 0,768 0,0 z"
         id="path3146" /></clipPath><clipPath
       clipPathUnits="userSpaceOnUse"
       id="clipPath3176"><path
         d="m 262.8455,446.8627 344.0576,0 0,139 -344.0576,0 0,-139 z"
         id="path3178" /></clipPath><clipPath
       clipPathUnits="userSpaceOnUse"
       id="clipPath3186"><path
         d="m 258.8455,442.8627 359.0048,0 0,147 -359.0048,0 0,-147 z"
         id="path3188" /></clipPath><clipPath
       clipPathUnits="userSpaceOnUse"
       id="clipPath3212"><path
         d="m 816.2622,622.2376 176.6695,0 0,53 -176.6695,0 0,-53 z"
         id="path3214" /></clipPath><clipPath
       clipPathUnits="userSpaceOnUse"
       id="clipPath3222"><path
         d="m 812.2622,618.2376 184.6695,0 0,61 -184.6695,0 0,-61 z"
         id="path3224" /></clipPath><clipPath
       clipPathUnits="userSpaceOnUse"
       id="clipPath3236"><path
         d="m 616.3156,544.8626 190.5342,0 0,96 -190.5342,0 0,-96 z"
         id="path3238" /></clipPath><clipPath
       clipPathUnits="userSpaceOnUse"
       id="clipPath3246"><path
         d="m 612.3156,540.8626 205.4731,0 0,104 -205.4731,0 0,-104 z"
         id="path3248" /></clipPath><clipPath
       clipPathUnits="userSpaceOnUse"
       id="clipPath3266"><path
         d="m 285.081,588.3627 152.992,0 0,61 -152.992,0 0,-61 z"
         id="path3268" /></clipPath><clipPath
       clipPathUnits="userSpaceOnUse"
       id="clipPath3280"><path
         d="m 663.7247,644.7804 95.716,0 0,61 -95.716,0 0,-61 z"
         id="path3282" /></clipPath><clipPath
       clipPathUnits="userSpaceOnUse"
       id="clipPath3294"><path
         d="m 31.0683,544.8626 222.3648,0 0,96 -222.3648,0 0,-96 z"
         id="path3296" /></clipPath><clipPath
       clipPathUnits="userSpaceOnUse"
       id="clipPath3304"><path
         d="m 27.0683,540.8626 230.3648,0 0,104 -230.3648,0 0,-104 z"
         id="path3306" /></clipPath><clipPath
       clipPathUnits="userSpaceOnUse"
       id="clipPath3324"><path
         d="m 469.7209,600.7376 137.1822,0 0,96 -137.1822,0 0,-96 z"
         id="path3326" /></clipPath><clipPath
       clipPathUnits="userSpaceOnUse"
       id="clipPath3334"><path
         d="m 465.7209,596.7376 152.1211,0 0,104 -152.1211,0 0,-104 z"
         id="path3336" /></clipPath><clipPath
       clipPathUnits="userSpaceOnUse"
       id="clipPath3354"><path
         d="m 604.9084,642.9376 213.3538,0 0,11.6 -213.3538,0 0,-11.6 z"
         id="path3356" /></clipPath><clipPath
       clipPathUnits="userSpaceOnUse"
       id="clipPath3368"><path
         d="m 251.4433,587.0626 366.8723,0 0,11.6 -366.8723,0 0,-11.6 z"
         id="path3370" /></clipPath><clipPath
       clipPathUnits="userSpaceOnUse"
       id="clipPath3382"><path
         d="m 0,0 1024,0 0,768 L 0,768 0,0 z"
         id="path3384" /></clipPath><clipPath
       clipPathUnits="userSpaceOnUse"
       id="clipPath3394"><path
         d="m 494.3235,178.4121 121.0586,0 0,61 -121.0586,0 0,-61 z"
         id="path3396" /></clipPath><clipPath
       clipPathUnits="userSpaceOnUse"
       id="clipPath3408"><path
         d="m 698.6326,186.4121 201.08,0 0,96 -201.08,0 0,-96 z"
         id="path3410" /></clipPath><clipPath
       clipPathUnits="userSpaceOnUse"
       id="clipPath3418"><path
         d="m 694.6326,182.4121 329.3674,0 0,104 -329.3674,0 0,-104 z"
         id="path3420" /></clipPath><clipPath
       clipPathUnits="userSpaceOnUse"
       id="clipPath3438"><path
         d="m 417.9848,229.2443 273.736,0 0,61 -273.736,0 0,-61 z"
         id="path3440" /></clipPath><clipPath
       clipPathUnits="userSpaceOnUse"
       id="clipPath3452"><path
         d="m 189.6036,212.9121 223.5604,0 0,96 -223.5604,0 0,-96 z"
         id="path3454" /></clipPath><clipPath
       clipPathUnits="userSpaceOnUse"
       id="clipPath3462"><path
         d="m 185.6036,208.9121 231.5604,0 0,104 -231.5604,0 0,-104 z"
         id="path3464" /></clipPath><clipPath
       clipPathUnits="userSpaceOnUse"
       id="clipPath3482"><path
         d="m 189.5038,158.5756 223.76,0 0,53 -223.76,0 0,-53 z"
         id="path3484" /></clipPath><clipPath
       clipPathUnits="userSpaceOnUse"
       id="clipPath3492"><path
         d="m 185.5038,154.5756 231.76,0 0,61 -231.76,0 0,-61 z"
         id="path3494" /></clipPath><clipPath
       clipPathUnits="userSpaceOnUse"
       id="clipPath3506"><path
         d="m 411.1587,228.4656 289.4753,0 0,11.59999 -289.4753,0 0,-11.59999 z"
         id="path3508" /></clipPath></defs><sodipodi:namedview
     pagecolor="#ffffff"
     bordercolor="#666666"
     borderopacity="1"
     objecttolerance="10"
     gridtolerance="10"
     guidetolerance="10"
     inkscape:pageopacity="0"
     inkscape:pageshadow="2"
     inkscape:window-width="1158"
     inkscape:window-height="832"
     id="namedview3006"
     showgrid="false"
     inkscape:zoom="0.24583333"
     inkscape:cx="640"
     inkscape:cy="480"
     inkscape:window-x="105"
     inkscape:window-y="0"
     inkscape:window-maximized="0"
     inkscape:current-layer="g3300" /><g
     id="g3012"
     inkscape:groupmode="layer"
     inkscape:label="LikelyVsConventional"
     transform="matrix(1.25,0,0,-1.25,0,960)"><g
       id="g3014" /><g
       id="g3016"><path
         d="m 0,0 1024,0 0,768 L 0,768 0,0 z"
         style="fill:#ffffff;fill-opacity:1;fill-rule:nonzero;stroke:none"
         id="path3018" /></g><g
       id="g3020"><g
         id="g3022"
         clip-path="url(#clipPath3024)"><path
           d="M 0,768 1024,768 1024,0 0,0 0,768 z"
           style="fill:#ffffff;fill-opacity:1;fill-rule:nonzero;stroke:none"
           id="path3028" /><g
           id="g3030"
           transform="translate(128.3588,715.6548)"><text
             transform="scale(1,-1)"
             id="text3032"><tspan
               style="fill:#000000;fill-opacity:1;fill-rule:nonzero;stroke:none;font-family:Helvetica;font-variant:normal;font-weight:300;font-size:36;writing-mode:lr;-inkscape-font-specification:Helvetica-Light"
               x="0"
               y="0"
               id="tspan3034">C</tspan></text>
</g><g
           id="g3036"
           transform="translate(128.3588,715.6548)"><text
             transform="matrix(1,0,0,-1,25.992,0)"
             id="text3038"><tspan
               style="fill:#000000;fill-opacity:1;fill-rule:nonzero;stroke:none;font-family:Helvetica;font-variant:normal;font-weight:300;font-size:28.8;writing-mode:lr;-inkscape-font-specification:Helvetica-Light"
               x="0 22.4064 43.2 60.7968 78.3936 99.1872 115.2 123.2064 145.6128 166.4064 185.616"
               y="0"
               sodipodi:role="line"
               id="tspan3040">ONVENTIONAL</tspan></text>
</g><g
           id="g3042"
           transform="translate(128.3588,715.6548)"><text
             transform="matrix(1,0,0,-1,237.6288,0)"
             id="text3044"><tspan
               style="fill:#000000;fill-opacity:1;fill-rule:nonzero;stroke:none;font-family:Helvetica;font-variant:normal;font-weight:300;font-size:36;writing-mode:lr;-inkscape-font-specification:Helvetica-Light"
               x="0"
               y="0"
               id="tspan3046">I</tspan></text>
</g><g
           id="g3048"
           transform="translate(128.3588,715.6548)"><text
             transform="matrix(1,0,0,-1,247.6368,0)"
             id="text3050"><tspan
               style="fill:#000000;fill-opacity:1;fill-rule:nonzero;stroke:none;font-family:Helvetica;font-variant:normal;font-weight:300;font-size:28.8;writing-mode:lr;-inkscape-font-specification:Helvetica-Light"
               x="0 23.9904 43.2 65.6064"
               y="0"
               sodipodi:role="line"
               id="tspan3052">MAGE</tspan></text>
</g><g
           id="g3054"
           transform="translate(128.3588,715.6548)"><text
             transform="matrix(1,0,0,-1,340.848,0)"
             id="text3056"><tspan
               style="fill:#000000;fill-opacity:1;fill-rule:nonzero;stroke:none;font-family:Helvetica;font-variant:normal;font-weight:300;font-size:36;writing-mode:lr;-inkscape-font-specification:Helvetica-Light"
               x="0"
               y="0"
               id="tspan3058">R</tspan></text>
</g><g
           id="g3060"
           transform="translate(128.3588,715.6548)"><text
             transform="matrix(1,0,0,-1,364.86,0)"
             id="text3062"><tspan
               style="fill:#000000;fill-opacity:1;fill-rule:nonzero;stroke:none;font-family:Helvetica;font-variant:normal;font-weight:300;font-size:28.8;writing-mode:lr;-inkscape-font-specification:Helvetica-Light"
               x="0 17.5968 38.3904 60.7968 83.2032 103.9968 112.0032 128.016 136.0224 158.4288"
               y="0"
               sodipodi:role="line"
               id="tspan3064">ECOGNITION</tspan></text>
</g><g
           id="g3066"
           transform="translate(128.3588,715.6548)"><text
             transform="matrix(1,0,0,-1,554.0904,0)"
             id="text3068"><tspan
               style="fill:#000000;fill-opacity:1;fill-rule:nonzero;stroke:none;font-family:Helvetica;font-variant:normal;font-weight:300;font-size:36;writing-mode:lr;-inkscape-font-specification:Helvetica-Light"
               x="0"
               y="0"
               id="tspan3070">D</tspan></text>
</g><g
           id="g3072"
           transform="translate(128.3588,715.6548)"><text
             transform="matrix(1,0,0,-1,580.0824,0)"
             id="text3074"><tspan
               style="fill:#000000;fill-opacity:1;fill-rule:nonzero;stroke:none;font-family:Helvetica;font-variant:normal;font-weight:300;font-size:28.8;writing-mode:lr;-inkscape-font-specification:Helvetica-Light"
               x="0 17.5968 35.1936 52.7904 68.8032 91.2096 108.8064 132.7968 150.3936 171.1872"
               y="0"
               sodipodi:role="line"
               id="tspan3076">EVELOPMENT</tspan></text>
</g></g></g><g
       id="g3078"><g
         id="g3080"
         clip-path="url(#clipPath3082)"><g
           id="g3086"
           transform="translate(441.4049,22.06489)"><text
             transform="scale(1,-1)"
             id="text3088"><tspan
               style="fill:#000000;fill-opacity:1;fill-rule:nonzero;stroke:none;font-family:Helvetica;font-variant:normal;font-weight:300;font-size:28;writing-mode:lr;-inkscape-font-specification:Helvetica-Light"
               x="0 15.568 31.136 48.244 63.812 79.38 96.488"
               y="0"
               sodipodi:role="line"
               id="tspan3090">Legend:</tspan></text>
</g></g></g><g
       id="g3092"><g
         id="g3094"
         clip-path="url(#clipPath3096)"><path
           d="m 770,54 241,0 0,-42 -241,0 0,42 z"
           style="fill:#ff9300;fill-opacity:0.5;fill-rule:nonzero;stroke:none"
           id="path3100" /></g></g><g
       id="g3102"><g
         id="g3104"
         clip-path="url(#clipPath3106)"><g
           id="g3110"
           transform="translate(774.0069,22.06489)"><text
             transform="scale(1,-1)"
             id="text3112"><tspan
               style="fill:#000000;fill-opacity:1;fill-rule:nonzero;stroke:none;font-family:Helvetica;font-variant:normal;font-weight:300;font-size:28;writing-mode:lr;-inkscape-font-specification:Helvetica-Light"
               x="0 17.108 32.676 38.892 56 73.108 88.676 105.784 112 127.568 135.352 152.46 161.28 176.848 193.956 209.524 225.092"
               y="0"
               sodipodi:role="line"
               id="tspan3114">Shippable Product</tspan></text>
</g></g></g><g
       id="g3116"><g
         id="g3118"
         clip-path="url(#clipPath3120)"><path
           d="m 549,54 217,0 0,-42 -217,0 0,42 z"
           style="fill:#008f00;fill-opacity:0.5;fill-rule:nonzero;stroke:none"
           id="path3124" /></g></g><g
       id="g3126"><g
         id="g3128"
         clip-path="url(#clipPath3130)"><g
           id="g3134"
           transform="translate(553.2009,22.06489)"><text
             transform="scale(1,-1)"
             id="text3136"><tspan
               style="fill:#000000;fill-opacity:1;fill-rule:nonzero;stroke:none;font-family:Helvetica;font-variant:normal;font-weight:300;font-size:28;writing-mode:lr;-inkscape-font-specification:Helvetica-Light"
               x="0 17.108 25.928 41.496 58.604 67.928 74.144 89.712 97.496 113.064 122.892 136.892 144.676 152.46 168.028 185.136 200.704"
               y="0"
               sodipodi:role="line"
               id="tspan3138">Proprietary Input</tspan></text>
</g></g></g><g
       id="g3140"><g
         id="g3142"
         clip-path="url(#clipPath3144)"><g
           id="g3148"
           transform="translate(376.5418,328.2479)"><text
             transform="scale(1,-1)"
             id="text3150"><tspan
               style="fill:#000000;fill-opacity:1;fill-rule:nonzero;stroke:none;font-family:Helvetica;font-variant:normal;font-weight:300;font-size:38;writing-mode:lr;-inkscape-font-specification:Helvetica-Light"
               x="0"
               y="0"
               id="tspan3152">L</tspan></text>
</g><g
           id="g3154"
           transform="translate(376.5418,328.2479)"><text
             transform="matrix(1,0,0,-1,21.128,0)"
             id="text3156"><tspan
               style="fill:#000000;fill-opacity:1;fill-rule:nonzero;stroke:none;font-family:Helvetica;font-variant:normal;font-weight:300;font-size:30.4;writing-mode:lr;-inkscape-font-specification:Helvetica-Light"
               x="0 8.4512 28.728 47.3024 60.8304"
               y="0"
               sodipodi:role="line"
               id="tspan3158">IKELY</tspan></text>
</g><g
           id="g3160"
           transform="translate(376.5418,328.2479)"><text
             transform="matrix(1,0,0,-1,111.0968,0)"
             id="text3162"><tspan
               style="fill:#000000;fill-opacity:1;fill-rule:nonzero;stroke:none;font-family:Helvetica;font-variant:normal;font-weight:300;font-size:38;writing-mode:lr;-inkscape-font-specification:Helvetica-Light"
               x="0"
               y="0"
               id="tspan3164">D</tspan></text>
</g><g
           id="g3166"
           transform="translate(376.5418,328.2479)"><text
             transform="matrix(1,0,0,-1,138.5328,0)"
             id="text3168"><tspan
               style="fill:#000000;fill-opacity:1;fill-rule:nonzero;stroke:none;font-family:Helvetica;font-variant:normal;font-weight:300;font-size:30.4;writing-mode:lr;-inkscape-font-specification:Helvetica-Light"
               x="0 18.5744 37.1488 55.7232 72.6256 96.2768 114.8512 140.1744 158.7488 180.6976"
               y="0"
               sodipodi:role="line"
               id="tspan3170">EVELOPMENT</tspan></text>
</g></g></g><g
       id="g3172"><g
         id="g3174"
         clip-path="url(#clipPath3176)"><path
           d="m 264,585 342,0 0,-137 -342,0 0,137 z"
           style="fill:#ff9300;fill-opacity:0.5;fill-rule:nonzero;stroke:none"
           id="path3180" /></g></g><g
       id="g3182"><g
         id="g3184"
         clip-path="url(#clipPath3186)"><g
           id="g3190"
           transform="translate(268.0683,546.1425)"><text
             transform="scale(1,-1)"
             id="text3192"><tspan
               style="fill:#000000;fill-opacity:1;fill-rule:nonzero;stroke:none;font-family:Helvetica;font-variant:normal;font-weight:300;font-size:36;writing-mode:lr;-inkscape-font-specification:Helvetica-Light"
               x="0 25.992 49.752 73.512 83.52 93.528 123.516 143.532 153.54 161.532 181.548 203.544 213.552 223.56 245.556 263.556 273.564 293.58 313.596 333.612"
               y="0"
               sodipodi:role="line"
               id="tspan3194">C++, Matlab, Python </tspan></text>
</g><g
           id="g3196"
           transform="translate(289.1463,503.1425)"><text
             transform="scale(1,-1)"
             id="text3198"><tspan
               style="fill:#000000;fill-opacity:1;fill-rule:nonzero;stroke:none;font-family:Helvetica;font-variant:normal;font-weight:300;font-size:36;writing-mode:lr;-inkscape-font-specification:Helvetica-Light"
               x="0 28.008 50.004 70.02 90.036 116.028 133.38 143.388 153.396 181.404 203.4 223.416 243.432 267.444 291.456"
               y="0"
               sodipodi:role="line"
               id="tspan3200">OpenCV, OpenBR </tspan></text>
</g><g
           id="g3202"
           transform="translate(416.8743,460.1425)"><text
             transform="scale(1,-1)"
             id="text3204"><tspan
               style="fill:#000000;fill-opacity:1;fill-rule:nonzero;stroke:none;font-family:Helvetica;font-variant:normal;font-weight:300;font-size:36;writing-mode:lr;-inkscape-font-specification:Helvetica-Light"
               x="0"
               y="0"
               id="tspan3206">…</tspan></text>
</g></g></g><g
       id="g3208"><g
         id="g3210"
         clip-path="url(#clipPath3212)"><path
           d="m 817,674 175,0 0,-51 -175,0 0,51 z"
           style="fill:#ff9300;fill-opacity:0.5;fill-rule:nonzero;stroke:none"
           id="path3216" /></g></g><g
       id="g3218"><g
         id="g3220"
         clip-path="url(#clipPath3222)"><g
           id="g3226"
           transform="translate(821.581,635.5175)"><text
             transform="scale(1,-1)"
             id="text3228"><tspan
               style="fill:#000000;fill-opacity:1;fill-rule:nonzero;stroke:none;font-family:Helvetica;font-variant:normal;font-weight:300;font-size:36;writing-mode:lr;-inkscape-font-specification:Helvetica-Light"
               x="0 29.988 50.004 72 92.016 100.008 110.016 130.032 138.024 146.016"
               y="0"
               sodipodi:role="line"
               id="tspan3230">Model File</tspan></text>
</g></g></g><g
       id="g3232"><g
         id="g3234"
         clip-path="url(#clipPath3236)"><path
           d="m 617,640 189,0 0,-94 -189,0 0,94 z"
           style="fill:#ff9300;fill-opacity:0.5;fill-rule:nonzero;stroke:none"
           id="path3240" /></g></g><g
       id="g3242"><g
         id="g3244"
         clip-path="url(#clipPath3246)"><g
           id="g3250"
           transform="translate(621.5467,601.1425)"><text
             transform="scale(1,-1)"
             id="text3252"><tspan
               style="fill:#000000;fill-opacity:1;fill-rule:nonzero;stroke:none;font-family:Helvetica;font-variant:normal;font-weight:300;font-size:36;writing-mode:lr;-inkscape-font-specification:Helvetica-Light"
               x="0 21.996 39.996 60.012 80.028 100.044 110.052 130.068 152.064 160.056 180.072"
               y="0"
               sodipodi:role="line"
               id="tspan3254">Executable </tspan></text>
</g><g
           id="g3256"
           transform="translate(634.5787,558.1425)"><text
             transform="scale(1,-1)"
             id="text3258"><tspan
               style="fill:#000000;fill-opacity:1;fill-rule:nonzero;stroke:none;font-family:Helvetica;font-variant:normal;font-weight:300;font-size:36;writing-mode:lr;-inkscape-font-specification:Helvetica-Light"
               x="0 24.012 32.004 54 74.016 86.004 93.996 104.004 124.02"
               y="0"
               sodipodi:role="line"
               id="tspan3260">Algorithm</tspan></text>
</g></g></g><g
       id="g3262"><g
         id="g3264"
         clip-path="url(#clipPath3266)"><g
           id="g3270"
           transform="translate(294.581,605.6425)"><text
             transform="scale(1,-1)"
             id="text3272"><tspan
               style="fill:#000000;fill-opacity:1;fill-rule:nonzero;stroke:none;font-family:Helvetica;font-style:italic;font-variant:normal;font-weight:300;font-size:36;writing-mode:lr;-inkscape-font-specification:Helvetica-LightOblique"
               x="0 25.992 46.008 75.996 97.992 105.984 113.976"
               y="0"
               sodipodi:role="line"
               id="tspan3274">Compile</tspan></text>
</g></g></g><g
       id="g3276"><g
         id="g3278"
         clip-path="url(#clipPath3280)"><g
           id="g3284"
           transform="translate(673.2247,662.0603)"><text
             transform="scale(1,-1)"
             id="text3286"><tspan
               style="fill:#000000;fill-opacity:1;fill-rule:nonzero;stroke:none;font-family:Helvetica;font-style:italic;font-variant:normal;font-weight:300;font-size:36;writing-mode:lr;-inkscape-font-specification:Helvetica-LightOblique"
               x="0 16.704 28.692 48.708 56.7"
               y="0"
               sodipodi:role="line"
               id="tspan3288">Train</tspan></text>
</g></g></g><g
       id="g3290"><g
         id="g3292"
         clip-path="url(#clipPath3294)"><path
           d="m 32,640 220,0 0,-94 -220,0 0,94 z"
           style="fill:#008f00;fill-opacity:0.5;fill-rule:nonzero;stroke:none"
           id="path3298" /></g></g><g
       id="g3300"><g
         id="g3302"
         clip-path="url(#clipPath3304)"><g
           id="g3308"
           transform="translate(65.24669,601.1425)"><text
             transform="scale(1,-1)"
             id="text3310"><tspan
               style="fill:#000000;fill-opacity:1;fill-rule:nonzero;stroke:none;font-family:Helvetica;font-variant:normal;font-weight:300;font-size:36;writing-mode:lr;-inkscape-font-specification:Helvetica-Light"
               x="0 24.012 32.004 54 74.016 86.004 93.996 104.004 124.02 154.008"
               y="0"
               sodipodi:role="line"
               id="tspan3312">Algorithm </tspan></text>
</g><g
           id="g3314"
           transform="translate(36.53669,558.1425)"><text
             transform="scale(1,-1)"
             id="text3316"><tspan
               style="fill:#000000;fill-opacity:1;fill-rule:nonzero;stroke:none;font-family:Helvetica;font-variant:normal;font-weight:300;font-size:36;writing-mode:lr;-inkscape-font-specification:Helvetica-Light"
               x="0 21.996 42.012 62.028 73.368 93.384 113.4 123.408 149.4 169.416 191.412"
               y="0"
               sodipodi:role="line"
               id="tspan3318">Source Code</tspan></text>
</g></g></g><g
       id="g3320"><g
         id="g3322"
         clip-path="url(#clipPath3324)"><path
           d="m 471,696 135,0 0,-94 -135,0 0,94 z"
           style="fill:#008f00;fill-opacity:0.5;fill-rule:nonzero;stroke:none"
           id="path3328" /></g></g><g
       id="g3330"><g
         id="g3332"
         clip-path="url(#clipPath3334)"><g
           id="g3338"
           transform="translate(474.952,657.0175)"><text
             transform="scale(1,-1)"
             id="text3340"><tspan
               style="fill:#000000;fill-opacity:1;fill-rule:nonzero;stroke:none;font-family:Helvetica;font-variant:normal;font-weight:300;font-size:36;writing-mode:lr;-inkscape-font-specification:Helvetica-Light"
               x="0 16.704 28.692 48.708 56.7 76.716 84.708 104.724 126.72"
               y="0"
               sodipodi:role="line"
               id="tspan3342">Training </tspan></text>
</g><g
           id="g3344"
           transform="translate(500.296,614.0175)"><text
             transform="scale(1,-1)"
             id="text3346"><tspan
               style="fill:#000000;fill-opacity:1;fill-rule:nonzero;stroke:none;font-family:Helvetica;font-variant:normal;font-weight:300;font-size:36;writing-mode:lr;-inkscape-font-specification:Helvetica-Light"
               x="0 25.992 46.008 56.016"
               y="0"
               sodipodi:role="line"
               id="tspan3348">Data</tspan></text>
</g></g></g><g
       id="g3350"><g
         id="g3352"
         clip-path="url(#clipPath3354)"><g
           id="g3358"
           transform="matrix(1,0,0,-1,605.9084,648.7376)"><path
             d="m 0,0 c 67.25126,0 134.5025,-0.262364 201.7538,-0.262364 l 1.3378,0"
             style="fill:none;stroke:#000000;stroke-opacity:1;stroke-width:2;stroke-linecap:butt;stroke-linejoin:miter;stroke-miterlimit:4;stroke-dasharray:none"
             id="path3360" /></g><path
           d="m 808,644.2 9.6,4.8 -9.6,4.8 0,-9.6 z"
           style="fill:#000000;fill-opacity:1;fill-rule:nonzero;stroke:none"
           id="path3362" /></g></g><g
       id="g3364"><g
         id="g3366"
         clip-path="url(#clipPath3368)"><g
           id="g3372"
           transform="matrix(1,0,0,-1,252.4433,592.8626)"><path
             d="m 356.5567,-0.1373523 -1.2844,0 C 236.8521,-0.1373519 118.426,0 0,1.375175e-6"
             style="fill:none;stroke:#000000;stroke-opacity:1;stroke-width:2;stroke-linecap:butt;stroke-linejoin:miter;stroke-miterlimit:4;stroke-dasharray:none"
             id="path3374" /></g><path
           d="m 608,588.2 9.6,4.8 -9.6,4.8 0,-9.6 z"
           style="fill:#000000;fill-opacity:1;fill-rule:nonzero;stroke:none"
           id="path3376" /></g></g><g
       id="g3378"><g
         id="g3380"
         clip-path="url(#clipPath3382)"><g
           id="g3386"
           transform="matrix(1,0,0,-1,8.547472,384)"><path
             d="M 0.4525284,0.5 1006.453,0.5"
             style="fill:none;stroke:#000000;stroke-opacity:1;stroke-width:3;stroke-linecap:round;stroke-linejoin:round;stroke-miterlimit:4;stroke-dasharray:0.003,9;stroke-dashoffset:0.5"
             id="path3388" /></g></g></g><g
       id="g3390"><g
         id="g3392"
         clip-path="url(#clipPath3394)"><g
           id="g3398"
           transform="translate(503.8235,195.6914)"><text
             transform="scale(1,-1)"
             id="text3400"><tspan
               style="fill:#000000;fill-opacity:1;fill-rule:nonzero;stroke:none;font-family:Helvetica;font-variant:normal;font-weight:bold;font-size:36;writing-mode:lr;-inkscape-font-specification:Helvetica-Bold"
               x="0 21.9888 31.9896 51.9984 72.0072 82.008"
               y="0"
               sodipodi:role="line"
               id="tspan3402">Likely</tspan></text>
</g></g></g><g
       id="g3404"><g
         id="g3406"
         clip-path="url(#clipPath3408)"><path
           d="m 700,281 199,0 0,-94 -199,0 0,94 z"
           style="fill:#ff9300;fill-opacity:0.5;fill-rule:nonzero;stroke:none"
           id="path3412" /></g></g><g
       id="g3414"><g
         id="g3416"
         clip-path="url(#clipPath3418)"><g
           id="g3422"
           transform="translate(709.1366,242.6919)"><text
             transform="scale(1,-1)"
             id="text3424"><tspan
               style="fill:#000000;fill-opacity:1;fill-rule:nonzero;stroke:none;font-family:Helvetica;font-variant:normal;font-weight:300;font-size:36;writing-mode:lr;-inkscape-font-specification:Helvetica-Light"
               x="0 21.996 39.996 60.012 80.028 100.044 110.052 130.068 152.064 160.056 180.072"
               y="0"
               sodipodi:role="line"
               id="tspan3426">Executable </tspan></text>
</g><g
           id="g3428"
           transform="translate(716.1566,199.6919)"><text
             transform="scale(1,-1)"
             id="text3430"><tspan
               style="fill:#000000;fill-opacity:1;fill-rule:nonzero;stroke:none;font-family:Helvetica;font-variant:normal;font-weight:300;font-size:36;writing-mode:lr;-inkscape-font-specification:Helvetica-Light"
               x="0 29.988 50.004 72 92.016 100.008 110.016 130.032 138.024 146.016"
               y="0"
               sodipodi:role="line"
               id="tspan3432">Model File</tspan></text>
</g></g></g><g
       id="g3434"><g
         id="g3436"
         clip-path="url(#clipPath3438)"><g
           id="g3442"
           transform="translate(427.4848,246.5242)"><text
             transform="scale(1,-1)"
             id="text3444"><tspan
               style="fill:#000000;fill-opacity:1;fill-rule:nonzero;stroke:none;font-family:Helvetica;font-style:italic;font-variant:normal;font-weight:300;font-size:36;writing-mode:lr;-inkscape-font-specification:Helvetica-LightOblique"
               x="0 25.992 46.008 75.996 97.992 105.984 113.976 133.992 144 168.012 178.02 194.724 206.712 226.728 234.72"
               y="0"
               sodipodi:role="line"
               id="tspan3446">Compile &amp; Train</tspan></text>
</g></g></g><g
       id="g3448"><g
         id="g3450"
         clip-path="url(#clipPath3452)"><path
           d="m 191,308 221,0 0,-94 -221,0 0,94 z"
           style="fill:#008f00;fill-opacity:0.5;fill-rule:nonzero;stroke:none"
           id="path3456" /></g></g><g
       id="g3458"><g
         id="g3460"
         clip-path="url(#clipPath3462)"><g
           id="g3466"
           transform="translate(224.3798,269.1919)"><text
             transform="scale(1,-1)"
             id="text3468"><tspan
               style="fill:#000000;fill-opacity:1;fill-rule:nonzero;stroke:none;font-family:Helvetica;font-variant:normal;font-weight:300;font-size:36;writing-mode:lr;-inkscape-font-specification:Helvetica-Light"
               x="0 24.012 32.004 54 74.016 86.004 93.996 104.004 124.02 154.008"
               y="0"
               sodipodi:role="line"
               id="tspan3470">Algorithm </tspan></text>
</g><g
           id="g3472"
           transform="translate(195.6698,226.1919)"><text
             transform="scale(1,-1)"
             id="text3474"><tspan
               style="fill:#000000;fill-opacity:1;fill-rule:nonzero;stroke:none;font-family:Helvetica;font-variant:normal;font-weight:300;font-size:36;writing-mode:lr;-inkscape-font-specification:Helvetica-Light"
               x="0 21.996 42.012 62.028 73.368 93.384 113.4 123.408 149.4 169.416 191.412"
               y="0"
               sodipodi:role="line"
               id="tspan3476">Source Code</tspan></text>
</g></g></g><g
       id="g3478"><g
         id="g3480"
         clip-path="url(#clipPath3482)"><path
           d="m 191,211 221,0 0,-51 -221,0 0,51 z"
           style="fill:#008f00;fill-opacity:0.5;fill-rule:nonzero;stroke:none"
           id="path3486" /></g></g><g
       id="g3488"><g
         id="g3490"
         clip-path="url(#clipPath3492)"><g
           id="g3496"
           transform="translate(195.0038,171.8554)"><text
             transform="scale(1,-1)"
             id="text3498"><tspan
               style="fill:#000000;fill-opacity:1;fill-rule:nonzero;stroke:none;font-family:Helvetica;font-variant:normal;font-weight:300;font-size:36;writing-mode:lr;-inkscape-font-specification:Helvetica-Light"
               x="0 16.704 28.692 48.708 56.7 76.716 84.708 104.724 126.72 136.728 162.72 182.736 192.744"
               y="0"
               sodipodi:role="line"
               id="tspan3500">Training Data</tspan></text>
</g></g></g><g
       id="g3502"><g
         id="g3504"
         clip-path="url(#clipPath3506)"><g
           id="g3510"
           transform="matrix(1,0,0,-1,412.16,234.2784)"><path
             d="m 278.84,0.278449 -0.9674,0 C 185.2523,0.4027841 92.62614,0.2615654 0,0.3859084"
             style="fill:none;stroke:#000000;stroke-opacity:1;stroke-width:2;stroke-linecap:butt;stroke-linejoin:miter;stroke-miterlimit:4;stroke-dasharray:none"
             id="path3512" /></g><path
           d="m 690.0064,229.1987 9.5936,4.8128 -9.6064,4.7872 0.0128,-9.6 z"
           style="fill:#000000;fill-opacity:1;fill-rule:nonzero;stroke:none"
           id="path3514" /></g></g></g></svg>